<?xml version="1.0" encoding="UTF-8" standalone="no"?>
<!-- Created with Inkscape (http://www.inkscape.org/) -->

<svg
   xmlns:dc="http://purl.org/dc/elements/1.1/"
   xmlns:cc="http://creativecommons.org/ns#"
   xmlns:rdf="http://www.w3.org/1999/02/22-rdf-syntax-ns#"
   xmlns:svg="http://www.w3.org/2000/svg"
   xmlns="http://www.w3.org/2000/svg"
   xmlns:sodipodi="http://sodipodi.sourceforge.net/DTD/sodipodi-0.dtd"
   xmlns:inkscape="http://www.inkscape.org/namespaces/inkscape"
   width="165.21161mm"
   height="44.458138mm"
   viewBox="0 0 165.21161 44.458138"
   version="1.1"
   id="svg8"
   inkscape:version="0.92.1 r15371"
   sodipodi:docname="logo.svg">
  <defs
     id="defs2" />
  <sodipodi:namedview
     id="base"
     pagecolor="#ffffff"
     bordercolor="#666666"
     borderopacity="1.0"
     inkscape:pageopacity="0.0"
     inkscape:pageshadow="2"
     inkscape:zoom="0.60934343"
     inkscape:cx="662.69755"
     inkscape:cy="-361.54108"
     inkscape:document-units="mm"
     inkscape:current-layer="layer1"
     showgrid="false"
     inkscape:window-width="1810"
     inkscape:window-height="1244"
     inkscape:window-x="499"
     inkscape:window-y="114"
     inkscape:window-maximized="0" />
  <metadata
     id="metadata5">
    <rdf:RDF>
      <cc:Work
         rdf:about="">
        <dc:format>image/svg+xml</dc:format>
        <dc:type
           rdf:resource="http://purl.org/dc/dcmitype/StillImage" />
        <dc:title></dc:title>
      </cc:Work>
    </rdf:RDF>
  </metadata>
  <g
     inkscape:label="Layer 1"
     inkscape:groupmode="layer"
     id="layer1"
     transform="translate(8.8340121,-77.425362)">
    <g
       aria-label="Peak Events
Catering"
       style="font-style:normal;font-weight:normal;font-size:10.58333302px;line-height:1.25;font-family:sans-serif;letter-spacing:0px;word-spacing:0px;fill:#000000;fill-opacity:1;stroke:none;stroke-width:0.26458332"
       id="text3682">
      <path
         d="m -6.0930942,87.545674 v 6.312793 q 0,0.384473 0.1736328,0.58291 0.1736328,0.198438 0.6201172,0.322461 v 0.396875 h -3.5346679 v -0.396875 q 0.4464843,-0.124023 0.6201171,-0.322461 0.1736329,-0.198437 0.1736329,-0.58291 V 79.521358 q 0,-0.37207 -0.1736329,-0.570508 -0.1736328,-0.198437 -0.6201171,-0.322461 v -0.396875 h 8.90488264 q 1.87275386,0 2.91455076,0.198438 1.0417968,0.198437 1.8603515,0.719336 0.8557617,0.520898 1.3766602,1.426269 0.5829101,1.016992 0.5829101,2.282031 0,1.736328 -1.0666015,2.976563 -0.8185547,0.95498 -2.0835938,1.339453 -1.2526367,0.37207 -3.58427726,0.37207 z m 0,-1.612304 h 6.3499999 q 1.4138672,0 2.0959961,-0.111622 0.6945312,-0.111621 1.2402343,-0.434082 1.2650391,-0.74414 1.2650391,-2.492871 0,-1.761132 -1.2650391,-2.505273 Q 3.047433,80.067061 2.3653041,79.95544 1.6831752,79.843819 0.2569057,79.843819 h -6.3499999 z"
         style="font-style:normal;font-variant:normal;font-weight:normal;font-stretch:normal;font-size:25.39999962px;line-height:0.80000001;font-family:'Copperplate Gothic Light';-inkscape-font-specification:'Copperplate Gothic Light, ';text-align:center;text-anchor:middle;stroke-width:0.26458332"
         id="path3686"
         inkscape:connector-curvature="0" />
      <path
         d="m 11.716671,88.661885 v 5.146973 h 8.582422 q 0.520899,0 0.731738,-0.161231 0.223243,-0.16123 0.334864,-0.644922 h 0.347265 v 2.951758 h -0.347265 q -0.111621,-0.471289 -0.322461,-0.632519 -0.21084,-0.161231 -0.731738,-0.161231 H 9.1493863 V 94.82585 Q 9.6330777,94.701826 9.7819058,94.490987 9.9431363,94.267744 9.9431363,93.759248 V 82.671553 q 0,-0.520898 -0.1612305,-0.731738 -0.1612304,-0.21084 -0.6325195,-0.334863 V 81.270088 H 20.224679 q 0.520899,0 0.731738,-0.16123 0.21084,-0.161231 0.334864,-0.63252 h 0.334863 v 2.951758 h -0.334863 q -0.124024,-0.483691 -0.334864,-0.644922 -0.210839,-0.16123 -0.731738,-0.16123 h -8.508008 v 4.688086 h 5.419825 q 0.520898,0 0.731738,-0.161231 0.21084,-0.16123 0.334863,-0.632519 h 0.334863 v 2.951758 h -0.334863 q -0.124023,-0.483692 -0.347266,-0.644922 -0.210839,-0.161231 -0.719335,-0.161231 z"
         style="font-style:normal;font-variant:normal;font-weight:normal;font-stretch:normal;font-size:25.39999962px;line-height:0.80000001;font-family:'Copperplate Gothic Light';-inkscape-font-specification:'Copperplate Gothic Light, ';text-align:center;text-anchor:middle;stroke-width:0.26458332"
         id="path3688"
         inkscape:connector-curvature="0" />
      <path
         d="m 34.164914,91.253975 h -7.280176 l -1.054199,2.331641 q -0.198438,0.434082 -0.198438,0.644921 0,0.42168 0.644922,0.595313 v 0.334863 H 22.853976 V 94.82585 q 0.496094,-0.08682 0.768945,-0.384473 0.285254,-0.310058 0.669727,-1.16582 l 4.601269,-9.996289 q 0.384473,-0.830957 0.384473,-1.141016 0,-0.434082 -0.620117,-0.5333 v -0.334864 h 4.030762 v 0.334864 q -0.620118,0.136425 -0.620118,0.5333 0,0.235645 0.496094,1.327051 l 4.415234,9.611816 q 0.446485,0.954981 0.768946,1.314649 0.322461,0.359668 0.818554,0.434082 v 0.334863 H 34.946261 V 94.82585 q 0.58291,-0.124024 0.58291,-0.42168 0,-0.148828 -0.297656,-0.818554 z M 33.582003,89.90212 30.543429,83.105635 27.48005,89.90212 Z"
         style="font-style:normal;font-variant:normal;font-weight:normal;font-stretch:normal;font-size:25.39999962px;line-height:0.80000001;font-family:'Copperplate Gothic Light';-inkscape-font-specification:'Copperplate Gothic Light, ';text-align:center;text-anchor:middle;stroke-width:0.26458332"
         id="path3690"
         inkscape:connector-curvature="0" />
      <path
         d="m 42.573704,89.790498 v 3.96875 q 0,0.508496 0.161231,0.731739 0.16123,0.210839 0.632519,0.334863 v 0.334863 H 40.006419 V 94.82585 q 0.471289,-0.124024 0.63252,-0.334863 0.16123,-0.223243 0.16123,-0.731739 V 82.671553 q 0,-0.520898 -0.16123,-0.731738 -0.161231,-0.21084 -0.63252,-0.334863 v -0.334864 h 3.361035 v 0.334864 q -0.471289,0.124023 -0.632519,0.334863 -0.161231,0.21084 -0.161231,0.731738 v 5.481836 l 6.647656,-5.171777 q 0.682129,-0.533301 0.84336,-0.694531 0.16123,-0.173633 0.16123,-0.334864 0,-0.260449 -0.446484,-0.347265 v -0.334864 h 3.906738 v 0.334864 q -0.496094,0.09922 -0.682129,0.186035 -0.186035,0.08682 -0.58291,0.396875 l -5.543848,4.328418 6.13916,7.801074 q 0.248047,0.310058 0.42168,0.409277 0.186035,0.08682 0.533301,0.09922 v 0.334863 H 50.27556 V 94.82585 q 0.545703,-0.136426 0.545703,-0.334863 0,-0.136426 -0.434082,-0.719336 l -4.824512,-6.238379 z"
         style="font-style:normal;font-variant:normal;font-weight:normal;font-stretch:normal;font-size:25.39999962px;line-height:0.80000001;font-family:'Copperplate Gothic Light';-inkscape-font-specification:'Copperplate Gothic Light, ';text-align:center;text-anchor:middle;stroke-width:0.26458332"
         id="path3692"
         inkscape:connector-curvature="0" />
      <path
         d="m 65.145965,87.26042 v 6.287989 h 10.852051 q 0.520898,0 0.731738,-0.161231 0.223242,-0.16123 0.334863,-0.632519 h 0.396875 v 3.199804 H 77.07702 q -0.124024,-0.471289 -0.347266,-0.632519 -0.21084,-0.161231 -0.731738,-0.161231 H 62.405047 v -0.396875 q 0.483692,-0.124023 0.63252,-0.334863 0.16123,-0.21084 0.16123,-0.731738 V 79.694991 q 0,-0.520899 -0.16123,-0.731738 -0.161231,-0.21084 -0.63252,-0.334864 v -0.396875 h 13.431738 q 0.520899,0 0.731739,-0.16123 0.21084,-0.161231 0.334863,-0.644922 h 0.396875 v 3.199805 h -0.396875 q -0.111621,-0.458887 -0.334863,-0.620118 -0.21084,-0.16123 -0.731739,-0.16123 h -10.69082 v 5.804297 h 7.007324 q 0.520899,0 0.731739,-0.161231 0.223242,-0.16123 0.334863,-0.632519 h 0.396875 V 88.05417 H 73.219891 Q 73.10827,87.582881 72.885028,87.421651 72.674188,87.26042 72.153289,87.26042 Z"
         style="font-style:normal;font-variant:normal;font-weight:normal;font-stretch:normal;font-size:25.39999962px;line-height:0.80000001;font-family:'Copperplate Gothic Light';-inkscape-font-specification:'Copperplate Gothic Light, ';text-align:center;text-anchor:middle;stroke-width:0.26458332"
         id="path3694"
         inkscape:connector-curvature="0" />
      <path
         d="m 86.688839,93.188741 4.452442,-10.182324 q 0.186035,-0.409278 0.186035,-0.706934 0,-0.58291 -0.731738,-0.694531 v -0.334864 h 3.447851 v 0.334864 q -0.533301,0.148828 -0.781348,0.446484 -0.235644,0.297656 -0.719335,1.401465 l -4.241602,9.661426 q -0.297656,0.682128 -0.297656,1.029394 0,0.545703 0.694531,0.682129 v 0.334863 H 84.406808 V 94.82585 q 0.694531,-0.148828 0.694531,-0.694531 0,-0.334864 -0.310058,-1.016992 L 80.425656,83.452901 Q 79.91716,82.324288 79.681515,82.039034 79.445871,81.75378 78.91257,81.604952 v -0.334864 h 3.844726 v 0.334864 q -0.731738,0.124023 -0.731738,0.669726 0,0.310059 0.186035,0.731739 z"
         style="font-style:normal;font-variant:normal;font-weight:normal;font-stretch:normal;font-size:25.39999962px;line-height:0.80000001;font-family:'Copperplate Gothic Light';-inkscape-font-specification:'Copperplate Gothic Light, ';text-align:center;text-anchor:middle;stroke-width:0.26458332"
         id="path3696"
         inkscape:connector-curvature="0" />
      <path
         d="m 98.557881,88.661885 v 5.146973 h 8.582419 q 0.5209,0 0.73174,-0.161231 0.22324,-0.16123 0.33486,-0.644922 h 0.34727 v 2.951758 h -0.34727 q -0.11162,-0.471289 -0.32246,-0.632519 -0.21084,-0.161231 -0.73174,-0.161231 H 95.990596 V 94.82585 q 0.483691,-0.124024 0.632519,-0.334863 0.161231,-0.223243 0.161231,-0.731739 V 82.671553 q 0,-0.520898 -0.161231,-0.731738 -0.16123,-0.21084 -0.632519,-0.334863 v -0.334864 h 11.075294 q 0.5209,0 0.73174,-0.16123 0.21084,-0.161231 0.33486,-0.63252 h 0.33486 v 2.951758 h -0.33486 q -0.12402,-0.483691 -0.33486,-0.644922 -0.21084,-0.16123 -0.73174,-0.16123 h -8.508009 v 4.688086 h 5.419819 q 0.5209,0 0.73174,-0.161231 0.21084,-0.16123 0.33487,-0.632519 h 0.33486 v 2.951758 h -0.33486 q -0.12403,-0.483692 -0.34727,-0.644922 -0.21084,-0.161231 -0.71934,-0.161231 z"
         style="font-style:normal;font-variant:normal;font-weight:normal;font-stretch:normal;font-size:25.39999962px;line-height:0.80000001;font-family:'Copperplate Gothic Light';-inkscape-font-specification:'Copperplate Gothic Light, ';text-align:center;text-anchor:middle;stroke-width:0.26458332"
         id="path3698"
         inkscape:connector-curvature="0" />
      <path
         d="m 113.41589,83.440499 v 10.318749 q 0,0.508496 0.14883,0.731739 0.16123,0.210839 0.64492,0.334863 v 0.334863 h -3.06338 V 94.82585 q 0.48369,-0.124024 0.63252,-0.334863 0.16123,-0.223243 0.16123,-0.731739 V 82.671553 q 0,-0.520898 -0.16123,-0.731738 -0.16123,-0.21084 -0.63252,-0.334863 v -0.334864 h 4.51445 v 0.334864 q -0.64492,0.21084 -0.64492,0.644922 0,0.37207 0.47129,0.892968 l 8.19795,9.177735 v -9.649024 q 0,-0.520898 -0.16123,-0.731738 -0.16123,-0.21084 -0.63252,-0.334863 v -0.334864 h 3.06338 v 0.334864 q -0.47129,0.124023 -0.63252,0.334863 -0.16123,0.21084 -0.16123,0.731738 v 11.087695 q 0,0.508496 0.14882,0.731739 0.16124,0.210839 0.64493,0.334863 v 0.334863 h -3.63389 V 94.82585 q 0.64492,-0.161231 0.64492,-0.508496 0,-0.260449 -0.59531,-0.930176 z"
         style="font-style:normal;font-variant:normal;font-weight:normal;font-stretch:normal;font-size:25.39999962px;line-height:0.80000001;font-family:'Copperplate Gothic Light';-inkscape-font-specification:'Copperplate Gothic Light, ';text-align:center;text-anchor:middle;stroke-width:0.26458332"
         id="path3700"
         inkscape:connector-curvature="0" />
      <path
         d="m 135.36804,82.696358 v 11.06289 q 0,0.508496 0.14883,0.731739 0.16123,0.210839 0.64492,0.334863 v 0.334863 h -3.36104 V 94.82585 q 0.47129,-0.124024 0.63252,-0.334863 0.16123,-0.223243 0.16123,-0.731739 v -11.06289 h -4.52685 q -0.5209,0 -0.73174,0.16123 -0.21084,0.161231 -0.33486,0.644922 h -0.33487 v -2.951758 h 0.33487 q 0.12402,0.47129 0.33486,0.63252 0.21084,0.16123 0.73174,0.16123 h 10.82724 q 0.5209,0 0.73174,-0.16123 0.21084,-0.16123 0.33487,-0.63252 h 0.33486 v 2.951758 h -0.33486 q -0.12403,-0.483691 -0.34727,-0.644922 -0.21084,-0.16123 -0.71934,-0.16123 z"
         style="font-style:normal;font-variant:normal;font-weight:normal;font-stretch:normal;font-size:25.39999962px;line-height:0.80000001;font-family:'Copperplate Gothic Light';-inkscape-font-specification:'Copperplate Gothic Light, ';text-align:center;text-anchor:middle;stroke-width:0.26458332"
         id="path3702"
         inkscape:connector-curvature="0" />
      <path
         d="m 156.15436,81.989424 -1.36426,2.703711 -0.29765,-0.148828 q 0.062,-0.359668 0.062,-0.496094 0,-0.297656 -0.80615,-0.719336 -1.71153,-0.917773 -4.16719,-0.917773 -1.97197,0 -3.34863,0.731738 -1.37666,0.744141 -1.37666,2.071192 0,0.595312 0.34726,1.079004 0.34727,0.471289 0.93018,0.669726 0.58291,0.198438 1.26504,0.260449 0.68212,0.06201 2.92695,0.148828 1.87275,0.06201 2.82773,0.235645 0.96739,0.173633 1.64952,0.558105 0.73173,0.409278 1.15341,1.190625 0.42168,0.768946 0.42168,1.686719 0,1.922363 -1.57509,3.063379 -1.88516,1.351855 -5.01055,1.351855 -1.53789,0 -3.23701,-0.471289 -1.68672,-0.471289 -3.1378,-1.289843 -0.19843,-0.124024 -0.29765,-0.124024 -0.18604,0 -0.55811,0.434082 l -0.28525,-0.186035 1.5751,-2.641699 0.29765,0.173633 q -0.0372,0.148828 -0.0496,0.198437 -0.062,0.198438 -0.062,0.322461 0,0.347266 1.26504,1.016992 2.1332,1.128614 4.42764,1.128614 2.09599,0 3.48506,-0.719336 0.66972,-0.347266 1.0666,-0.930176 0.39687,-0.595313 0.39687,-1.240234 0,-0.595313 -0.33486,-1.066602 -0.33486,-0.471289 -0.88057,-0.669727 -0.50849,-0.173632 -1.14101,-0.248046 -0.62012,-0.07441 -2.35645,-0.136426 -2.04639,-0.08682 -2.92695,-0.198438 -0.88057,-0.124023 -1.66192,-0.409277 -0.99218,-0.359668 -1.5999,-1.16582 -0.60771,-0.830957 -0.60771,-1.959571 0,-1.996777 1.81074,-3.137793 1.84795,-1.16582 4.70049,-1.16582 2.60449,0 5.23379,1.16582 0.39687,0.161231 0.45888,0.161231 0.19844,0 0.47129,-0.458887 z"
         style="font-style:normal;font-variant:normal;font-weight:normal;font-stretch:normal;font-size:25.39999962px;line-height:0.80000001;font-family:'Copperplate Gothic Light';-inkscape-font-specification:'Copperplate Gothic Light, ';text-align:center;text-anchor:middle;stroke-width:0.26458332"
         id="path3704"
         inkscape:connector-curvature="0" />
      <path
         d="m 30.469015,105.62403 -1.835547,3.06337 -0.334864,-0.19843 q 0.111622,-0.37207 0.111622,-0.58291 0,-0.5085 -1.5875,-1.27744 -2.182813,-1.06661 -4.7625,-1.06661 -3.472657,0 -5.630664,1.92237 -2.195215,1.95957 -2.195215,5.07256 0,3.10058 2.282031,5.14697 2.207617,1.99678 5.444629,1.99678 3.162598,0 5.581055,-1.84795 1.091406,-0.83096 1.091406,-1.17823 0,-0.17363 -0.21084,-0.5705 l 0.297656,-0.23565 2.207617,2.67891 -0.310058,0.24804 q -0.347266,-0.31005 -0.570508,-0.31005 -0.136426,0 -0.471289,0.26045 -1.141016,0.85576 -1.897559,1.28984 -0.74414,0.42168 -1.637109,0.71933 -1.847949,0.63252 -4.067969,0.63252 -4.278808,0 -6.957714,-2.38125 -2.815332,-2.49287 -2.815332,-6.3624 0,-3.05097 1.761132,-5.2834 2.753321,-3.49746 8.247559,-3.49746 3.633886,0 7.032129,1.92237 0.223242,0.12402 0.310058,0.12402 0.161231,0 0.58291,-0.47129 z"
         style="font-style:normal;font-variant:normal;font-weight:normal;font-stretch:normal;font-size:25.39999962px;line-height:0.80000001;font-family:'Copperplate Gothic Light';-inkscape-font-specification:'Copperplate Gothic Light, ';text-align:center;text-anchor:middle;stroke-width:0.26458332"
         id="path3706"
         inkscape:connector-curvature="0" />
      <path
         d="m 43.665108,117.18301 h -7.280176 l -1.054199,2.33164 q -0.198438,0.43408 -0.198438,0.64492 0,0.42168 0.644922,0.59531 v 0.33487 H 32.35417 v -0.33487 q 0.496094,-0.0868 0.768946,-0.38447 0.285254,-0.31006 0.669726,-1.16582 l 4.60127,-9.99629 q 0.384472,-0.83095 0.384472,-1.14101 0,-0.43408 -0.620117,-0.5333 v -0.33487 h 4.030762 v 0.33487 q -0.620117,0.13642 -0.620117,0.5333 0,0.23564 0.496093,1.32705 l 4.415235,9.61181 q 0.446484,0.95498 0.768945,1.31465 0.322461,0.35967 0.818555,0.43408 v 0.33487 h -3.621485 v -0.33487 q 0.582911,-0.12402 0.582911,-0.42168 0,-0.14882 -0.297657,-0.81855 z m -0.58291,-1.35186 -3.038575,-6.79648 -3.063378,6.79648 z"
         style="font-style:normal;font-variant:normal;font-weight:normal;font-stretch:normal;font-size:25.39999962px;line-height:0.80000001;font-family:'Copperplate Gothic Light';-inkscape-font-specification:'Copperplate Gothic Light, ';text-align:center;text-anchor:middle;stroke-width:0.26458332"
         id="path3708"
         inkscape:connector-curvature="0" />
      <path
         d="m 55.918621,108.62539 v 11.06289 q 0,0.5085 0.148828,0.73174 0.161231,0.21084 0.644922,0.33486 v 0.33487 h -3.361035 v -0.33487 q 0.471289,-0.12402 0.63252,-0.33486 0.16123,-0.22324 0.16123,-0.73174 v -11.06289 h -4.526855 q -0.520899,0 -0.731739,0.16123 -0.21084,0.16123 -0.334863,0.64493 h -0.334863 v -2.95176 h 0.334863 q 0.124023,0.47129 0.334863,0.63252 0.21084,0.16123 0.731739,0.16123 h 10.827246 q 0.520898,0 0.731738,-0.16123 0.21084,-0.16123 0.334863,-0.63252 h 0.334863 v 2.95176 h -0.334863 q -0.124023,-0.4837 -0.347266,-0.64493 -0.210839,-0.16123 -0.719335,-0.16123 z"
         style="font-style:normal;font-variant:normal;font-weight:normal;font-stretch:normal;font-size:25.39999962px;line-height:0.80000001;font-family:'Copperplate Gothic Light';-inkscape-font-specification:'Copperplate Gothic Light, ';text-align:center;text-anchor:middle;stroke-width:0.26458332"
         id="path3710"
         inkscape:connector-curvature="0" />
      <path
         d="m 66.33659,114.59092 v 5.14697 h 8.582422 q 0.520898,0 0.731738,-0.16123 0.223242,-0.16123 0.334863,-0.64492 h 0.347266 v 2.95176 h -0.347266 q -0.111621,-0.47129 -0.322461,-0.63252 -0.21084,-0.16123 -0.731738,-0.16123 H 63.769305 v -0.33487 q 0.483691,-0.12402 0.632519,-0.33486 0.161231,-0.22324 0.161231,-0.73174 v -11.08769 q 0,-0.5209 -0.161231,-0.73174 -0.16123,-0.21084 -0.632519,-0.33486 v -0.33487 h 11.075293 q 0.520898,0 0.731738,-0.16123 0.21084,-0.16123 0.334863,-0.63252 h 0.334863 v 2.95176 h -0.334863 q -0.124023,-0.48369 -0.334863,-0.64492 -0.21084,-0.16123 -0.731738,-0.16123 H 66.33659 v 4.68808 h 5.419824 q 0.520898,0 0.731738,-0.16123 0.21084,-0.16123 0.334864,-0.63252 h 0.334863 v 2.95176 h -0.334863 q -0.124024,-0.48369 -0.347266,-0.64492 -0.21084,-0.16123 -0.719336,-0.16123 z"
         style="font-style:normal;font-variant:normal;font-weight:normal;font-stretch:normal;font-size:25.39999962px;line-height:0.80000001;font-family:'Copperplate Gothic Light';-inkscape-font-specification:'Copperplate Gothic Light, ';text-align:center;text-anchor:middle;stroke-width:0.26458332"
         id="path3712"
         inkscape:connector-curvature="0" />
      <path
         d="m 81.492252,114.80176 v 4.88652 q 0,0.5085 0.161231,0.73174 0.16123,0.21084 0.632519,0.33486 v 0.33487 h -3.361035 v -0.33487 q 0.483692,-0.12402 0.63252,-0.33486 0.16123,-0.22324 0.16123,-0.73174 v -11.08769 q 0,-0.5209 -0.16123,-0.73174 -0.161231,-0.21084 -0.63252,-0.33486 v -0.33487 h 8.247559 q 1.401465,0 2.282031,0.19844 0.892969,0.19844 1.550293,0.66973 1.438672,1.01699 1.438672,2.97656 0,1.5999 -1.00459,2.53008 -1.00459,0.91777 -2.951758,1.10381 l 3.485059,5.53144 q 0.186035,0.29766 0.359668,0.40928 0.186035,0.0992 0.644922,0.16123 v 0.31006 h -3.43545 v -0.33487 q 0.483692,-0.0992 0.483692,-0.31005 0,-0.14883 -0.285254,-0.59532 l -3.199805,-5.04775 z m 0,-1.35186 h 5.283399 q 1.277441,0 1.909961,-0.0868 0.644922,-0.0992 1.091406,-0.34727 0.979785,-0.5457 0.979785,-1.89756 0,-1.30224 -0.917773,-1.95957 -0.84336,-0.60771 -2.864942,-0.60771 h -5.481836 z"
         style="font-style:normal;font-variant:normal;font-weight:normal;font-stretch:normal;font-size:25.39999962px;line-height:0.80000001;font-family:'Copperplate Gothic Light';-inkscape-font-specification:'Copperplate Gothic Light, ';text-align:center;text-anchor:middle;stroke-width:0.26458332"
         id="path3714"
         inkscape:connector-curvature="0" />
      <path
         d="m 96.015402,119.68828 v -11.08769 q 0,-0.5209 -0.161231,-0.73174 -0.16123,-0.21084 -0.632519,-0.33486 v -0.33487 h 3.361035 v 0.33487 q -0.471289,0.12402 -0.63252,0.33486 -0.16123,0.21084 -0.16123,0.73174 v 11.08769 q 0,0.5085 0.16123,0.73174 0.161231,0.21084 0.63252,0.33486 v 0.33487 h -3.361035 v -0.33487 q 0.471289,-0.12402 0.632519,-0.33486 0.161231,-0.22324 0.161231,-0.73174 z"
         style="font-style:normal;font-variant:normal;font-weight:normal;font-stretch:normal;font-size:25.39999962px;line-height:0.80000001;font-family:'Copperplate Gothic Light';-inkscape-font-specification:'Copperplate Gothic Light, ';text-align:center;text-anchor:middle;stroke-width:0.26458332"
         id="path3716"
         inkscape:connector-curvature="0" />
      <path
         d="m 103.86608,109.36953 v 10.31875 q 0,0.5085 0.14883,0.73174 0.16123,0.21084 0.64492,0.33486 v 0.33487 h -3.06338 v -0.33487 q 0.48369,-0.12402 0.63252,-0.33486 0.16123,-0.22324 0.16123,-0.73174 v -11.08769 q 0,-0.5209 -0.16123,-0.73174 -0.16123,-0.21084 -0.63252,-0.33486 v -0.33487 h 4.51446 v 0.33487 q -0.64493,0.21084 -0.64493,0.64492 0,0.37207 0.47129,0.89297 l 8.19795,9.17773 v -9.64902 q 0,-0.5209 -0.16123,-0.73174 -0.16123,-0.21084 -0.63252,-0.33486 v -0.33487 h 3.06338 v 0.33487 q -0.47129,0.12402 -0.63252,0.33486 -0.16123,0.21084 -0.16123,0.73174 v 11.08769 q 0,0.5085 0.14883,0.73174 0.16123,0.21084 0.64492,0.33486 v 0.33487 h -3.63389 v -0.33487 q 0.64493,-0.16123 0.64493,-0.50849 0,-0.26045 -0.59532,-0.93018 z"
         style="font-style:normal;font-variant:normal;font-weight:normal;font-stretch:normal;font-size:25.39999962px;line-height:0.80000001;font-family:'Copperplate Gothic Light';-inkscape-font-specification:'Copperplate Gothic Light, ';text-align:center;text-anchor:middle;stroke-width:0.26458332"
         id="path3718"
         inkscape:connector-curvature="0" />
      <path
         d="m 134.32624,108.50137 -1.69912,2.72851 -0.28525,-0.17363 q 0.12402,-0.43408 0.12402,-0.58291 0,-0.32246 -1.17822,-1.00459 -1.90996,-1.079 -4.05557,-1.079 -2.6293,0 -4.36562,1.51308 -1.93477,1.67432 -1.93477,4.32842 0,2.51768 1.77354,4.11758 1.74873,1.5999 4.61367,1.5999 1.43867,0 2.74092,-0.42168 1.30224,-0.43408 2.20761,-1.19062 v -2.55489 h -3.12539 q -0.5209,0 -0.74414,0.16124 -0.21084,0.16123 -0.32246,0.63251 h -0.33486 v -2.95175 h 0.33486 q 0.11162,0.48369 0.32246,0.64492 0.22324,0.16123 0.74414,0.16123 h 5.48184 v 0.33486 q -0.48369,0.11162 -0.64492,0.33487 -0.16123,0.21084 -0.16123,0.73173 v 1.43868 q 0,0.52089 0.16123,0.74414 0.16123,0.21084 0.64492,0.32246 v 0.28525 q -3.22461,2.76572 -7.50342,2.76572 -3.37344,0 -5.53145,-1.81074 -1.15341,-0.97978 -1.81074,-2.35644 -0.70693,-1.46348 -0.70693,-3.03858 0,-2.33164 1.41387,-4.20439 1.26503,-1.66192 3.36103,-2.44326 1.5627,-0.58291 3.34863,-0.58291 1.53789,0 2.80293,0.37207 1.27744,0.37207 3.05098,1.32705 0.28525,0.14883 0.40928,0.14883 0.14883,0 0.58291,-0.4961 z"
         style="font-style:normal;font-variant:normal;font-weight:normal;font-stretch:normal;font-size:25.39999962px;line-height:0.80000001;font-family:'Copperplate Gothic Light';-inkscape-font-specification:'Copperplate Gothic Light, ';text-align:center;text-anchor:middle;stroke-width:0.26458332"
         id="path3720"
         inkscape:connector-curvature="0" />
    </g>
  </g>
</svg>
